<mxfile host="65bd71144e">
    <diagram id="s6eZJ7bZj1Zcu7YawV79" name="Page-1">
        <mxGraphModel dx="662" dy="3775" grid="1" gridSize="10" guides="1" tooltips="1" connect="1" arrows="1" fold="1" page="1" pageScale="1" pageWidth="850" pageHeight="1100" math="0" shadow="0">
            <root>
                <mxCell id="0"/>
                <mxCell id="1" parent="0"/>
                <mxCell id="2" value="&lt;b&gt;&lt;font style=&quot;font-size: 30px;&quot;&gt;LOGO&lt;/font&gt;&lt;/b&gt;" style="rounded=0;whiteSpace=wrap;html=1;sketch=1;curveFitting=1;jiggle=2;" vertex="1" parent="1">
                    <mxGeometry x="283" y="-3160" width="285" height="60" as="geometry"/>
                </mxCell>
                <mxCell id="5" value="produk" style="swimlane;whiteSpace=wrap;html=1;fontSize=30;startSize=190;sketch=1;curveFitting=1;jiggle=2;" vertex="1" parent="1">
                    <mxGeometry x="290" y="-2510" width="271" height="190" as="geometry"/>
                </mxCell>
                <mxCell id="3" value="Banner Promosi" style="whiteSpace=wrap;html=1;aspect=fixed;fontSize=30;sketch=1;curveFitting=1;jiggle=2;" vertex="1" parent="1">
                    <mxGeometry x="199" y="-3050" width="453" height="453" as="geometry"/>
                </mxCell>
            </root>
        </mxGraphModel>
    </diagram>
</mxfile>